<svg xmlns="http://www.w3.org/2000/svg" viewBox="0 0 512 432" style="height: 512px; width: 512px;">
    <path d="M0 0h512v512H0z" fill="#000" fill-opacity="1"></path>
    <g class="" transform="translate(0,-40)" style="">
        <path
            d="M168.4 29.55 L24.8 477.6l15.24 4.8L183.6 34.45l-15.2-4.9zm175.2 0l-15.2 4.9 144 447.95 15.2-4.8-144-448.05zM248 32l-.8 20h17.6l-.8-20h-16zm-1.4 36l-.8 20h20.4l-.8-20h-18.8zm-1.5 36l-1.3 32h24.4l-1.3-32h-21.8zm-1.9 48l-2 48h29.6l-2-48h-25.6zm-2.8 68l-2.4 60h36l-2.4-60h-31.2zm-3.3 84l-2.9 72h43.6l-2.9-72h-37.8zm-4 100l-3.1 76h52l-3.1-76h-45.8z"
            fill="#fff" fill-opacity="1">
        </path>
    </g>
    <g class="" transform="translate(290,275) scale(.70)" style="">
        <rect width="50" height="200" x="75" y="0" rx="20" fill="#2fdc2f" />
        <rect width="200" height="50" x="0" y="75" rx="20" fill="#2fdc2f" />
    </g>
</svg>
